<svg xmlns="http://www.w3.org/2000/svg" viewBox="0 0 900 720" fill="none" role="presentation">
  <g stroke="currentColor" stroke-width="1.45" stroke-linecap="round" stroke-linejoin="round">
    <path d="M98 690c142-104 241-223 300-357 39-89 99-174 185-255"/>
    <path d="M253 555c-84-20-149 5-195 74 88 23 153-2 195-74Z"/>
    <path d="M333 423c-76-2-136 28-181 91 80 5 141-25 181-91Z"/>
    <path d="M400 330c61-9 111-41 149-96-66 6-116 38-149 96Z"/>
    <path d="M463 215c-62-3-113 21-154 73 66 6 117-19 154-73Z"/>
    <path d="M553 103c-4-50 16-91 60-124 7 55-13 96-60 124Z"/>
    <path d="M399 330c-36-38-35-81-2-105 35 22 37 67 2 105Z"/>
    <path d="M406 334c51-19 91 4 93 43-32 26-75 10-93-43Z"/>
    <path d="M399 342c26 46 8 86-31 95-32-25-22-69 31-95Z"/>
    <path d="M391 336c-52 13-86-16-77-55 36-20 74 1 77 55Z"/>
    <circle cx="399" cy="336" r="6"/>
    <path d="M258 548c-25-30-22-62 3-78 27 18 27 52-3 78Z"/>
    <path d="M263 552c37-13 65 5 67 34-24 18-54 6-67-34Z"/>
    <path d="M258 558c18 35 4 64-25 69-22-20-15-51 25-69Z"/>
    <circle cx="258" cy="553" r="4"/>
    <path d="M463 594c65-78 129-168 185-271 41-74 90-141 153-202"/>
    <path d="M571 460c-58-10-104 7-139 51 61 13 108-4 139-51Z"/>
    <path d="M637 349c49-3 91-25 125-67-53 0-95 23-125 67Z"/>
    <path d="M692 252c-45-8-82 5-112 39 48 11 85-2 112-39Z"/>
    <path d="M755 159c31-26 45-58 43-96-35 27-49 59-43 96Z"/>
    <path d="M639 343c-25-29-24-61 1-79 27 17 28 51-1 79Z"/>
    <path d="M644 347c37-14 67 3 69 31-23 20-55 8-69-31Z"/>
    <path d="M638 352c20 34 7 64-22 72-24-18-17-50 22-72Z"/>
    <circle cx="639" cy="348" r="4"/>
  </g>
</svg>
